<svg width="18" height="18" viewBox="0 0 18 18" fill="none" xmlns="http://www.w3.org/2000/svg">
<g id="Inner Plugin Iframe">
<path id="Vector" d="M12.1691 2.42384C11.5562 2.42238 10.9513 2.56253 10.4016 2.83336C9.85184 3.10419 9.3721 3.49838 8.99979 3.98516C8.62745 3.49828 8.14763 3.10404 7.59778 2.8332C7.04793 2.56237 6.44292 2.42227 5.82999 2.42384C3.62211 2.42384 1.81905 4.22618 1.81059 6.44144C1.80231 8.82554 2.95521 10.2312 3.88185 11.361L4.08057 11.6038C5.17767 12.9565 8.57913 15.3862 8.72313 15.489C8.80401 15.5465 8.9008 15.5774 9.00006 15.5774C9.09932 15.5774 9.19611 15.5465 9.27699 15.489C9.42099 15.3862 12.8225 12.9565 13.9196 11.6038L14.1181 11.361C15.0446 10.2312 16.1976 8.82554 16.1894 6.44144C16.1807 4.22618 14.3775 2.42384 12.1691 2.42384Z" fill="#D9E021"/>
</g>
</svg>
