<svg xmlns="http://www.w3.org/2000/svg" viewBox="0 0 100 100">
  <rect x="0" y="0" width="100" height="100" rx="25" fill="#e7ad04" />
  <svg x="20" y="20" width="60" height="60" viewBox="0 0 24 24" fill="none" stroke="#000000" stroke-width="2.5" stroke-linecap="round" stroke-linejoin="round">
    <path d="M2 9a3 3 0 0 1 0 6v2a2 2 0 0 0 2 2h16a2 2 0 0 0 2-2v-2a3 3 0 0 1 0-6V7a2 2 0 0 0-2-2H4a2 2 0 0 0-2 2Z"/>
    <path d="M13 5v2"/>
    <path d="M13 17v2"/>
    <path d="M13 11v2"/>
  </svg>
</svg>
